<svg xmlns="http://www.w3.org/2000/svg" width="1000" height="600" viewBox="0 0 1000 600"><rect width="100%" height="100%" fill="#cccccc"/><path fill="#ffffff" d="M258.54 311.445q1.14 0 2.03.88l5.51 5.98q-4.58 5.67-11.26 8.69-6.68 3.01-16.04 3.01-8.37 0-15.06-2.86-6.68-2.86-11.41-7.95-4.73-5.1-7.25-12.17-2.53-7.07-2.53-15.45 0-8.47 2.71-15.52 2.7-7.04 7.62-12.14 4.91-5.1 11.72-7.93t15.08-2.83q8.22 0 14.59 2.7t10.84 7.07l-4.68 6.5q-.42.63-1.07 1.09-.65.47-1.79.47-.78 0-1.61-.44t-1.82-1.09-2.29-1.43-3.02-1.43q-1.71-.65-3.97-1.09-2.27-.45-5.23-.45-5.04 0-9.23 1.8-4.19 1.79-7.2 5.2-3.02 3.4-4.68 8.32-1.67 4.91-1.67 11.2 0 6.35 1.8 11.29 1.79 4.94 4.86 8.32t7.23 5.17q4.16 1.8 8.94 1.8 2.86 0 5.18-.32 2.31-.31 4.26-.98 1.95-.68 3.69-1.75 1.74-1.06 3.46-2.62.52-.47 1.09-.76.57-.28 1.2-.28m38.74-36.45q5.93 0 10.79 1.92t8.32 5.46 5.33 8.63q1.87 5.1 1.87 11.39 0 6.34-1.87 11.44t-5.33 8.68q-3.46 3.59-8.32 5.52-4.86 1.92-10.79 1.92-5.98 0-10.87-1.92-4.89-1.93-8.35-5.52-3.45-3.58-5.35-8.68t-1.9-11.44q0-6.29 1.9-11.39 1.9-5.09 5.35-8.63 3.46-3.54 8.35-5.46t10.87-1.92m0 45.08q6.65 0 9.85-4.47t3.2-13.11q0-8.63-3.2-13.15-3.2-4.53-9.85-4.53-6.76 0-10.01 4.55t-3.25 13.13 3.25 13.08 10.01 4.5m48.98 9.1h-12.84v-53.35h7.85q2.5 0 3.28 2.34l.83 3.95q1.4-1.56 2.94-2.86 1.53-1.3 3.27-2.24 1.74-.93 3.75-1.48 2-.54 4.39-.54 5.04 0 8.29 2.73t4.87 7.25q1.24-2.65 3.12-4.55 1.87-1.9 4.1-3.09 2.24-1.2 4.76-1.77t5.07-.57q4.42 0 7.85 1.35 3.44 1.35 5.78 3.95t3.56 6.34q1.22 3.75 1.22 8.58v33.96h-12.84v-33.96q0-5.09-2.24-7.67-2.24-2.57-6.55-2.57-1.98 0-3.67.68-1.69.67-2.96 1.95-1.28 1.27-2 3.19-.73 1.93-.73 4.42v33.96h-12.9v-33.96q0-5.35-2.16-7.8-2.15-2.44-6.31-2.44-2.81 0-5.23 1.38t-4.5 3.77zm74.67-53.35h12.9v53.35h-12.9zm14.67-15.55q0 1.66-.68 3.12-.67 1.46-1.79 2.55t-2.63 1.74-3.22.65q-1.67 0-3.15-.65t-2.57-1.74-1.74-2.55-.65-3.12q0-1.72.65-3.22.65-1.51 1.74-2.6 1.09-1.1 2.57-1.75t3.15-.65q1.71 0 3.22.65t2.63 1.75q1.12 1.09 1.79 2.6.68 1.5.68 3.22m22.46 17.89.89 4.21q1.61-1.61 3.4-2.99 1.8-1.38 3.8-2.34t4.29-1.51q2.29-.54 4.99-.54 4.37 0 7.75 1.48t5.64 4.16 3.43 6.39q1.17 3.72 1.17 8.19v33.96h-12.84v-33.96q0-4.88-2.24-7.56-2.23-2.68-6.81-2.68-3.33 0-6.24 1.51t-5.51 4.11v38.58h-12.85v-53.35h7.86q2.49 0 3.27 2.34m67.03 23.03q2.39 0 4.16-.65t2.94-1.79 1.77-2.76q.59-1.61.59-3.53 0-3.95-2.36-6.27-2.37-2.31-7.1-2.31t-7.1 2.31q-2.36 2.32-2.36 6.27 0 1.87.59 3.48.6 1.61 1.77 2.78t2.97 1.82q1.79.65 4.13.65m14.51 30.37q0-1.56-.94-2.55-.93-.98-2.55-1.53-1.61-.55-3.77-.81-2.15-.26-4.57-.39t-4.99-.23q-2.58-.1-5.02-.42-2.13 1.2-3.46 2.81t-1.33 3.75q0 1.4.71 2.62.7 1.22 2.23 2.11 1.54.88 3.98 1.38 2.44.49 5.98.49 3.59 0 6.19-.55 2.6-.54 4.29-1.5 1.69-.97 2.47-2.29.78-1.33.78-2.89m-2.55-53.92h15.34v4.78q0 2.29-2.76 2.81l-4.78.88q1.09 2.76 1.09 6.04 0 3.95-1.58 7.15-1.59 3.19-4.4 5.43t-6.63 3.46-8.24 1.22q-1.56 0-3.02-.16-1.45-.15-2.86-.41-2.49 1.51-2.49 3.38 0 1.61 1.48 2.36 1.48.76 3.93 1.07 2.44.31 5.56.39t6.4.34q3.27.26 6.39.91t5.57 2.05q2.44 1.41 3.92 3.82 1.48 2.42 1.48 6.22 0 3.53-1.74 6.86t-5.04 5.93-8.11 4.19q-4.81 1.58-10.95 1.58-6.03 0-10.5-1.17-4.48-1.17-7.44-3.12t-4.42-4.5q-1.46-2.54-1.46-5.3 0-3.74 2.27-6.27 2.26-2.52 6.21-4.03-2.13-1.09-3.38-2.91t-1.25-4.78q0-1.2.44-2.47.45-1.28 1.3-2.52.86-1.25 2.16-2.37t3.07-2q-4.06-2.19-6.37-5.83t-2.31-8.52q0-3.96 1.58-7.15 1.59-3.2 4.42-5.46 2.84-2.27 6.71-3.46 3.87-1.2 8.45-1.2 3.43 0 6.45.7 3.01.71 5.51 2.06m84.19 3.95-2.91 4.63q-.52.83-1.1 1.17-.57.34-1.45.34-.94 0-2-.52-1.07-.52-2.47-1.17-1.41-.65-3.2-1.17-1.8-.52-4.24-.52-3.8 0-5.95 1.61-2.16 1.61-2.16 4.21 0 1.72 1.12 2.89 1.11 1.17 2.96 2.05t4.19 1.59q2.34.7 4.75 1.53 2.42.83 4.76 1.9 2.34 1.06 4.19 2.7 1.84 1.64 2.96 3.93t1.12 5.51q0 3.85-1.38 7.1t-4.08 5.61q-2.7 2.37-6.68 3.7-3.98 1.32-9.18 1.32-2.76 0-5.38-.49-2.63-.5-5.05-1.38-2.41-.88-4.47-2.08-2.05-1.2-3.61-2.6l2.96-4.89q.57-.88 1.35-1.35t1.98-.47 2.26.68q1.07.67 2.47 1.45 1.41.78 3.3 1.46 1.9.68 4.81.68 2.29 0 3.93-.55t2.7-1.43q1.07-.88 1.56-2.05.5-1.17.5-2.42 0-1.87-1.12-3.07t-2.96-2.08q-1.85-.88-4.22-1.59-2.36-.7-4.83-1.53t-4.84-1.95q-2.36-1.12-4.21-2.83-1.85-1.72-2.96-4.22-1.12-2.49-1.12-6.03 0-3.27 1.3-6.24 1.3-2.96 3.82-5.17t6.29-3.54q3.77-1.32 8.71-1.32 5.51 0 10.04 1.82 4.52 1.82 7.54 4.78m33.85-6.6q5.93 0 10.79 1.92t8.32 5.46 5.33 8.63q1.87 5.1 1.87 11.39 0 6.34-1.87 11.44t-5.33 8.68q-3.46 3.59-8.32 5.52-4.86 1.92-10.79 1.92-5.98 0-10.87-1.92-4.89-1.93-8.34-5.52-3.46-3.58-5.36-8.68t-1.9-11.44q0-6.29 1.9-11.39 1.9-5.09 5.36-8.63 3.45-3.54 8.34-5.46t10.87-1.92m0 45.08q6.66 0 9.85-4.47 3.2-4.47 3.2-13.11 0-8.63-3.2-13.15-3.19-4.53-9.85-4.53-6.76 0-10.01 4.55t-3.25 13.13 3.25 13.08 10.01 4.5m59.75-45.08q5.93 0 10.79 1.92t8.32 5.46 5.33 8.63q1.87 5.1 1.87 11.39 0 6.34-1.87 11.44t-5.33 8.68q-3.46 3.59-8.32 5.52-4.86 1.92-10.79 1.92-5.98 0-10.87-1.92-4.89-1.93-8.35-5.52-3.45-3.58-5.35-8.68t-1.9-11.44q0-6.29 1.9-11.39 1.9-5.09 5.35-8.63 3.46-3.54 8.35-5.46t10.87-1.92m0 45.08q6.65 0 9.85-4.47t3.2-13.11q0-8.63-3.2-13.15-3.2-4.53-9.85-4.53-6.76 0-10.01 4.55t-3.25 13.13 3.25 13.08 10.01 4.5m47.27-41.91.88 4.21q1.61-1.61 3.41-2.99 1.79-1.38 3.79-2.34t4.29-1.51q2.29-.54 4.99-.54 4.37 0 7.75 1.48t5.64 4.16q2.27 2.68 3.44 6.39 1.17 3.72 1.17 8.19v33.96h-12.85v-33.96q0-4.88-2.23-7.56-2.24-2.68-6.82-2.68-3.32 0-6.24 1.51-2.91 1.51-5.51 4.11v38.58h-12.84v-53.35h7.85q2.5 0 3.28 2.34"/></svg>